<svg width="14" height="17" viewBox="0 0 14 17" fill="none" xmlns="http://www.w3.org/2000/svg">
<path d="M11.9304 3.865C11.8204 4.005 11.7104 4.115 11.6004 4.195C11.5004 4.275 11.3504 4.315 11.1504 4.315C10.9604 4.315 10.7754 4.26 10.5954 4.15C10.4154 4.03 10.2004 3.9 9.95038 3.76C9.70038 3.61 9.40038 3.48 9.05038 3.37C8.71038 3.25 8.28538 3.19 7.77538 3.19C7.12538 3.19 6.55538 3.31 6.06538 3.55C5.57538 3.78 5.16538 4.115 4.83538 4.555C4.51538 4.995 4.27538 5.53 4.11538 6.16C3.95538 6.78 3.87538 7.485 3.87538 8.275C3.87538 9.095 3.96038 9.825 4.13038 10.465C4.31038 11.105 4.56538 11.645 4.89538 12.085C5.22538 12.515 5.62538 12.845 6.09538 13.075C6.56538 13.295 7.09538 13.405 7.68538 13.405C8.27538 13.405 8.75038 13.335 9.11038 13.195C9.48038 13.045 9.79038 12.885 10.0404 12.715C10.2904 12.535 10.5054 12.375 10.6854 12.235C10.8754 12.085 11.0854 12.01 11.3154 12.01C11.6154 12.01 11.8404 12.125 11.9904 12.355L13.0554 13.705C12.6454 14.185 12.2004 14.59 11.7204 14.92C11.2404 15.24 10.7404 15.5 10.2204 15.7C9.71038 15.89 9.18038 16.025 8.63038 16.105C8.09038 16.185 7.55038 16.225 7.01038 16.225C6.06038 16.225 5.16538 16.05 4.32538 15.7C3.48538 15.34 2.75038 14.82 2.12038 14.14C1.49038 13.46 0.990378 12.63 0.620379 11.65C0.260378 10.66 0.0803784 9.535 0.0803784 8.275C0.0803784 7.145 0.240378 6.1 0.560379 5.14C0.890378 4.17 1.37038 3.335 2.00038 2.635C2.63038 1.925 3.41038 1.37 4.34038 0.969999C5.27038 0.569999 6.34038 0.369999 7.55038 0.369999C8.70038 0.369999 9.70538 0.554999 10.5654 0.925C11.4354 1.295 12.2154 1.825 12.9054 2.515L11.9304 3.865Z" fill="#071108"/>
</svg>
